# xmcd
#
# Track frame offsets:
#  150
#  13421
#  34138
#  45884
#  63447
#  78708
#  94922
#  106928
#  122055
#  140214
#  156577
#  171316
#  188429
#
# Disc length: 2757 seconds
#
# Revision: 0
# Processed by: cddbd v1.4PL0 Copyright (c) Steve Scherf et al.
# Submitted via: AltoMP3_Maker 3.0
#
DISCID=b40ac30d
DTITLE=Michael Carr - Self Titled
DYEAR=1900
DGENRE=
TTITLE0=Don't Make Me Dance
TTITLE1=Hometown High School Reunion
TTITLE2=While The Wife's Away
TTITLE3=If I Hear Crying
TTITLE4=In It Upto Here
TTITLE5=Up On His Shoulders
TTITLE6=Wham Bam
TTITLE7=Your Best Friend
TTITLE8=A Little More Love
TTITLE9=The Greatest Man
TTITLE10=Too Gone
TTITLE11=Keep It In The Family
TTITLE12=Bonus Track - Wearing White
EXTD=
EXTT0=
EXTT1=
EXTT2=
EXTT3=
EXTT4=
EXTT5=
EXTT6=
EXTT7=
EXTT8=
EXTT9=
EXTT10=
EXTT11=
EXTT12=
PLAYORDER=
